<svg xmlns="http://www.w3.org/2000/svg" viewBox="251.1 496.2 244.1 60"><path fill="#4E4E4E" d="M320.296 522.213h14.1v17.6c-3.8 1.3-8 2-12.6 2-5 0-8.9-1.5-11.6-4.4s-4.1-7.1-4.1-12.5c0-5.3 1.5-9.4 4.5-12.3 3-2.9 7.2-4.4 12.6-4.4 2.1 0 4 .2 5.8.6s3.4.9 4.8 1.5l-2.8 6.9c-2.3-1.2-4.9-1.7-7.7-1.7-2.6 0-4.6.8-6 2.5-1.4 1.7-2.1 4.1-2.1 7.2 0 3 .6 5.4 1.9 7s3.1 2.4 5.5 2.4c1.3 0 2.5-.1 3.6-.4v-5.1h-5.8l-.1-6.9zm45.6 2.1c0 5.4-1.5 9.6-4.5 12.6s-7.2 4.4-12.6 4.4h-10.5v-32.6h11.3c5.2 0 9.3 1.3 12.1 4s4.2 6.6 4.2 11.6zm-9.1.3c0-3-.6-5.2-1.8-6.6s-3-2.2-5.4-2.2h-2.6v18.3h2c2.7 0 4.6-.8 5.9-2.3s1.9-4 1.9-7.2zm25.4-2.4h14.1v17.6c-3.8 1.3-8 2-12.6 2-5 0-8.9-1.5-11.6-4.4-2.7-2.9-4.1-7.1-4.1-12.5 0-5.3 1.5-9.4 4.5-12.3 3-2.9 7.2-4.4 12.6-4.4 2.1 0 4 .2 5.8.6 1.8.4 3.4.9 4.8 1.5l-2.8 6.9c-2.3-1.2-4.9-1.7-7.7-1.7-2.6 0-4.6.8-6 2.5-1.4 1.7-2.1 4.1-2.1 7.2 0 3 .6 5.4 1.9 7s3.1 2.4 5.5 2.4c1.3 0 2.5-.1 3.6-.4v-5.1h-5.8l-.1-6.9z"/><g fill="#4E4E4E"><path d="M419.1 541.3v-32.6h5.3v28h13.8v4.6h-19.1zM446.9 541.3l-9.4-24.7h5.5l5 14.3c.9 2.4 1.4 4.4 1.6 5.8h.2c.1-1.1.7-3 1.6-5.8l5-14.3h5.6l-9.4 24.7h-5.7zM463.4 510.1c0-.9.3-1.7.8-2.2.5-.5 1.2-.8 2.2-.8.9 0 1.6.3 2.2.8.5.5.8 1.2.8 2.2 0 .9-.3 1.6-.8 2.1s-1.2.8-2.2.8c-1 0-1.7-.3-2.2-.8s-.8-1.2-.8-2.1zm5.6 31.2h-5.2v-24.7h5.2v24.7zM480.1 541.3l-9.4-24.7h5.5l5 14.3c.9 2.4 1.4 4.4 1.6 5.8h.2c.1-1.1.7-3 1.6-5.8l5-14.3h5.6l-9.4 24.7h-5.7z"/></g><path fill="#F6C25B" d="M260.1 556h6.8c1.6 0 3.6-1.1 4.4-2.5l5.7-9.5c.7-1.4.7-3.4-.1-4.7l-3.4-5.6-13.4 22.3z"/><path fill="#0A985C" d="M267.4 528.5l-15.1 25.3c-.6 1.2 0 2.2 1.5 2.2h6.3l13.4-22.3-6.1-10.2c.8 1.4.8 3.6 0 5"/><path fill="#5586C5" d="M253.8 496c-1.6 0-2.3 1.1-1.4 2.5l24.5 40.7c.8 1.3.8 3.3.1 4.7l6-9.9-22.9-38h-6.3z"/><path fill="#D9423E" d="M260.1 496l22.9 38 3.3-5.5c.8-1.4.8-3.6 0-5l-15-25c-.8-1.4-2.8-2.5-4.4-2.5h-6.8z"/><path fill="#168B58" d="M267.4 528.5l-3.6 6 6.5 4.6 3.3-5.5-6.1-10.2c.7 1.5.7 3.7-.1 5.1z"/><path fill="#D7AB56" d="M273.5 533.7l-3.3 5.5 6.8 4.8c.7-1.4.7-3.4-.1-4.7l-3.4-5.6z"/></svg>