<svg xmlns="http://www.w3.org/2000/svg" viewBox="0 0 815.5733 544.69336" height="544.693" width="815.573"><defs><clipPath id="a"><path d="M0 0h6116.82v4085H0z"/></clipPath></defs><g clip-path="url(#a)" transform="matrix(.13333 0 0 -.13333 0 544.693)"><path d="M4794.72 2229.49c69.98 0 104.55 54.31 104.55 108.61 0 55.17-34.57 109.48-104.55 109.48h-126.75v-218.09zm0 302.04c124.28 0 186.84-96.3 186.84-192.6 0-96.29-62.56-191.76-186.84-191.76h-126.75V1955.4h-83.95v576.13h210.7M5133.02 2247.59h97.13c69.95 0 104.52 50.21 104.52 100.4 0 49.38-34.57 99.59-104.52 99.59h-127.57V1955.4h-82.32v576.13h209.89c125.09 0 187.64-92.17 187.64-183.54 0-81.47-50.21-158.83-148.97-176.13l181.91-216.46h-107.84l-209.87 252.66v39.53" fill="#45414e"/><path d="M4248.71 2225.41h-132.47v227.94h132.47c73.11 0 109.24-56.77 109.24-114.41 0-56.77-36.13-113.53-109.24-113.53zm-1205.7 102.84c0-52.47-47.5-130.37-120.62-130.37h-132.45v255.46h133.32c73.12 0 119.75-73.48 119.75-125.09zm-708.31-130.37l75.69 212.46 73.99-212.46zm1914.01 343.2h-365.85v-.85h-.61V2119.6c0-66.23-71.39-99.78-134.19-99.78-63.65 0-135.05 32.69-135.05 98.92v422.34h-909.09v-343.2h-124.79l-137.77 343.2h-736.58v-.45c-64.11-2.99-124.83-24.93-162.27-73.52-25.8-33.55-36.12-73.97-32.67-114.4v.85c9.45-125.58 119.56-146.22 213.32-155.68 60.2-6.02 122.13-13.77 132.45-59.36 1.73-7.74 2.59-14.62 2.59-20.64 0-61.93-70.53-98.06-135.04-98.06-55.92 0-123.87 29.25-129.89 85.16v-3.44l-.87 12.9-87.73-1.72.86-16.35c11.18-107.52 123.87-162.57 216.76-162.57 108.38 0 223.64 67.09 223.64 183.22 0 12.04-1.71 26.66-4.3 39.57-23.22 96.34-125.58 117.84-208.16 128.16-64.51 6.02-132.47 13.76-136.76 75.7-1.72 20.64 2.58 40.42 14.62 55.91 21.99 28.27 56.8 35.56 93.45 37.28v-.3h297.94v-516.96h86.88v516.96h252.89L2136 1938.96h93.76c18.93 49.89 49.03 122.15 72.25 177.2l215.94-.09 72.22-177.11h92.9l-71.09 177.11h91.94v-177.11h86.02v177.11h71.96l179.22-177.11h112.67l-190.97 179.78c103.22 18.06 167.07 124.35 167.07 209.51 0 41.38-14.3 86.83-41.09 125.09h166.44v-516.96h86.88v516.96h183.16V2119.6c0-123 116.99-186.66 222.78-186.66 103.23 0 221.93 63.66 221.93 185.8v334.61h58.52v-514.38h87.73v200.42h132.47c129.88 0 195.26 99.78 195.26 200.42 0 100.64-65.38 201.27-195.26 201.27" fill="#3a76c4"/><path d="M1015.21 2521.9c-157.929 0-286.413-128.48-286.413-286.4 0-157.93 128.484-286.42 286.413-286.42 157.93 0 286.41 128.49 286.41 286.42 0 157.92-128.48 286.4-286.41 286.4zm0-635.8c-192.659 0-349.398 156.74-349.398 349.4 0 192.65 156.739 349.39 349.398 349.39 192.65 0 349.39-156.74 349.39-349.39 0-192.66-156.74-349.4-349.39-349.4" fill="#45414e"/><path d="M1073.69 2333.81c0-4.96 3.39-11.17 7.3-14.24 24.97-19.57 41.04-49.97 41.04-84.07 0-58.91-47.92-106.83-106.83-106.83-58.895 0-106.821 47.92-106.821 106.83 0 34.1 16.082 64.5 41.039 84.07 3.91 3.07 7.305 9.28 7.305 14.24v29.61c0 17.4-13.442 26.86-28.375 17.93-49.637-29.66-82.946-83.94-82.946-145.85 0-93.64 76.176-169.81 169.798-169.81 93.64 0 169.81 76.17 169.81 169.81 0 61.91-33.31 116.19-82.94 145.85-14.93 8.93-28.38-.53-28.38-17.92v-29.62" fill="#3a76c4"/><path d="M1046.69 2315.46c0-17.31-14.17-31.49-31.49-31.49-17.317 0-31.481 14.18-31.481 31.49v85.48c0 17.32 14.164 31.49 31.481 31.49 17.32 0 31.49-14.17 31.49-31.49v-85.48" fill="#3a76c4"/><path d="M2156.04 1545.04c4.73-23.27 15.98-40.36 41.43-40.36 19.98 0 35.63 10.9 35.63 31.98 0 23.26-19.63 29.08-38.17 36.72-27.64 11.63-53.8 18.9-53.8 54.53 0 31.98 25.81 49.81 55.63 49.81 31.62 0 50.16-18.19 57.77-47.62l-23.26-6.91c-4.34 18.54-14.17 31.62-34.9 31.62-15.62 0-30.88-8-30.88-25.1 0-17.8 10.9-22.88 25.45-29.43l40.33-17.81c17.09-9.44 26.19-24.73 26.19-44.34 0-35.99-25.1-56.36-59.99-56.36-35.26 0-57.43 22.56-63.24 56.36l21.81 6.91M2485.35 1674.44h118.15v-21.82h-93.79v-56.71h77.43v-21.79h-77.43v-67.25h93.79v-21.82h-118.15v189.39M2886.63 1506.87c21.47 0 41.45 4.72 41.45 30.52 0 18.9-12.37 34.16-35.63 34.16h-34.16v-64.68zm-1.09 86.5c21.11 0 31.65 13.46 31.65 30.53 0 22.55-16 28.72-33.1 28.72h-25.8v-59.25zm-71.24-108.32v21.82h19.63v145.75h-19.63v21.82h59.61c48 0 68.7-18.19 68.7-50.54 0-16.36-6.91-30.89-21.44-38.89 20.73-6.55 32.36-24.35 32.36-45.79 0-34.18-22.55-54.17-62.17-54.17h-77.06M3222.14 1587.91c23.62 0 39.26 13.46 39.26 34.9 0 17.09-10.18 29.81-32 29.81h-39.26v-64.71zm-56.33 86.53h64.33c31.62 0 56.71-14.91 56.71-51.63 0-23.27-15.64-46.15-38.55-53.06l46.53-76.7-21.08-12.73-48.34 85.8h-35.27v-81.07h-24.33v189.39M3562.39 1646.07l-26.89-87.6h53.79zm-33.45-109.41l-17.8-56.34-24 8.71 59.61 185.41h31.26l59.61-185.41-23.97-8.71-17.45 56.34h-67.26M3852.08 1674.44h118.15v-21.82h-93.79v-56.71h77.44v-21.79h-77.44v-67.25h93.79v-21.82h-118.15v189.39" fill="#918f90"/><path d="M665.812 1579.38H1942.86M4173.69 1579.38h1277.04" fill="none" stroke="#918f90" stroke-width="23.766" stroke-miterlimit="10"/></g></svg>