<svg id="dark" xmlns="http://www.w3.org/2000/svg" viewBox="-396.8 2029.4 623.8 200.1"><style>.st0{fill:#f6c25b}.st1{fill:#0a985c}.st2{fill:#5586c5}.st3{fill:#d9423e}.st4{fill:#168b58}.st5{fill:#d7ab56}.st6{enable-background:new}.st7{fill:#4e4e4e}</style><path class="st0" d="M-369.9 2229.4h22.6c5.4 0 12-3.8 14.8-8.4l19.1-31.7c2.3-4.7 2.2-11.4-.4-15.7l-11.3-18.6-44.8 74.4z"/><path class="st1" d="M-345.6 2137.8l-50.3 84.2c-1.9 4.1.1 7.5 5.1 7.5h20.9l44.8-74.4-20.5-33.9c2.8 4.4 2.8 12 0 16.6"/><path class="st2" d="M-390.9 2029.4c-5.4 0-7.5 3.8-4.7 8.4l81.8 135.8c2.6 4.3 2.6 11.1.4 15.7l19.9-33.1-76.3-126.8h-21.1z"/><path class="st3" d="M-369.9 2029.4l76.3 126.8 11.1-18.4c2.8-4.6 2.8-12.1 0-16.7l-50-83.3c-2.8-4.6-9.4-8.4-14.8-8.4h-22.6z"/><path class="st4" d="M-345.6 2137.8l-12 20.1 21.5 15.3 11-18.2-20.5-33.9c2.8 4.5 2.8 12.1 0 16.7z"/><path class="st5" d="M-325.1 2155l-11 18.2 22.6 16.1c2.3-4.7 2.2-11.4-.4-15.7l-11.2-18.6z"/><g class="st6"><path class="st7" d="M-213.2 2087.2h23.1v28.9c-6.3 2.1-13.2 3.2-20.7 3.2-8.3 0-14.6-2.4-19.1-7.2-4.5-4.8-6.8-11.6-6.8-20.5 0-8.6 2.5-15.4 7.4-20.2 4.9-4.8 11.8-7.2 20.7-7.2 3.4 0 6.5.3 9.5 1 3 .6 5.6 1.4 7.8 2.4l-4.6 11.4c-3.9-1.9-8.1-2.9-12.7-2.9-4.2 0-7.5 1.4-9.8 4.1-2.3 2.7-3.5 6.7-3.5 11.8 0 5 1 8.8 3.1 11.4 2.1 2.6 5.1 3.9 9 3.9 2.1 0 4.1-.2 5.9-.6v-8.4h-9.6v-11.1zM-137.7 2090.7c0 8.9-2.5 15.8-7.4 20.7-4.9 4.8-11.8 7.3-20.7 7.3h-17.3V2065h18.5c8.6 0 15.2 2.2 19.9 6.6 4.6 4.4 7 10.8 7 19.1zm-15 .5c0-4.9-1-8.5-2.9-10.9-1.9-2.4-4.9-3.6-8.8-3.6h-4.2v30h3.2c4.4 0 7.6-1.3 9.7-3.8 1.9-2.6 3-6.5 3-11.7zM-110.6 2087.2h23.1v28.9c-6.3 2.1-13.2 3.2-20.7 3.2-8.3 0-14.6-2.4-19.1-7.2-4.5-4.8-6.8-11.6-6.8-20.5 0-8.6 2.5-15.4 7.4-20.2 4.9-4.8 11.8-7.2 20.7-7.2 3.4 0 6.5.3 9.5 1 3 .6 5.6 1.4 7.8 2.4l-4.6 11.4c-3.9-1.9-8.1-2.9-12.7-2.9-4.2 0-7.5 1.4-9.8 4.1-2.3 2.7-3.5 6.7-3.5 11.8 0 5 1 8.8 3.1 11.4 2.1 2.6 5.1 3.9 9 3.9 2.1 0 4.1-.2 5.9-.6v-8.4h-9.6v-11.1zM-4.1 2090.7c0 8.9-2.5 15.8-7.4 20.7-4.9 4.8-11.8 7.3-20.7 7.3h-17.3V2065H-31c8.6 0 15.2 2.2 19.9 6.6 4.7 4.4 7 10.8 7 19.1zm-15 .5c0-4.9-1-8.5-2.9-10.9-1.9-2.4-4.9-3.6-8.8-3.6H-35v30h3.2c4.4 0 7.6-1.3 9.7-3.8 2-2.6 3-6.5 3-11.7zM20.7 2119.3c-6.9 0-12.3-1.8-16.1-5.5-3.8-3.7-5.7-8.9-5.7-15.7 0-7 1.8-12.4 5.3-16.1 3.5-3.7 8.6-5.6 15.2-5.6 6.2 0 11.1 1.6 14.5 4.9 3.4 3.3 5.1 8 5.1 14.1v6.4H13.4c.1 2.3.9 4.1 2.5 5.5 1.6 1.3 3.8 2 6.5 2 2.5 0 4.8-.2 6.9-.7 2.1-.5 4.4-1.3 6.9-2.4v10.3c-2.2 1.1-4.6 1.9-7 2.4s-5.2.4-8.5.4zm-.8-33.2c-1.7 0-3.1.5-4.2 1.6s-1.8 2.7-2 5H26c0-2-.6-3.6-1.7-4.8-1.1-1.2-2.6-1.8-4.4-1.8zM53.9 2118.6l-15.8-41.5H53l7 24.5c0 .1.1.3.1.6s.1.6.2 1 .1.8.2 1.3.1.9.1 1.3h.4c0-1.3.2-2.6.7-4.1l7.4-24.6H84l-15.8 41.5H53.9zM100 2118.6H85.7V2065h31.6v11.6H100v10.2h16v11.6h-16v20.2zM141.4 2119.3c-6.9 0-12.3-1.8-16.1-5.5-3.8-3.7-5.7-8.9-5.7-15.7 0-7 1.8-12.4 5.3-16.1 3.5-3.7 8.6-5.6 15.2-5.6 6.2 0 11.1 1.6 14.5 4.9 3.4 3.3 5.1 8 5.1 14.1v6.4H134c.1 2.3.9 4.1 2.5 5.5 1.6 1.3 3.8 2 6.5 2 2.5 0 4.8-.2 6.9-.7 2.1-.5 4.4-1.3 6.9-2.4v10.3c-2.2 1.1-4.6 1.9-7 2.4-2.2.2-5.1.4-8.4.4zm-.9-33.2c-1.7 0-3.1.5-4.2 1.6s-1.8 2.7-2 5h12.3c0-2-.6-3.6-1.7-4.8-1.1-1.2-2.5-1.8-4.4-1.8zM195.8 2105.8c0 4.4-1.5 7.8-4.5 10.1s-7.4 3.4-13 3.4c-3.1 0-5.7-.2-8-.5s-4.6-.9-7-1.8v-11.5c2.2 1 4.7 1.8 7.3 2.4 2.6.6 5 1 7.1 1 3.1 0 4.7-.7 4.7-2.1 0-.7-.4-1.4-1.3-2-.9-.6-3.4-1.7-7.6-3.4-3.8-1.6-6.5-3.3-8-5.3s-2.3-4.5-2.3-7.6c0-3.9 1.5-6.9 4.5-9 3-2.1 7.2-3.2 12.6-3.2 2.7 0 5.3.3 7.7.9 2.4.6 4.9 1.5 7.5 2.6l-3.9 9.2c-1.9-.9-3.9-1.6-6-2.2-2.1-.6-3.9-.9-5.2-.9-2.3 0-3.5.6-3.5 1.7 0 .7.4 1.3 1.2 1.8.8.5 3.2 1.5 7.1 3.1 2.9 1.2 5.1 2.4 6.5 3.5 1.4 1.1 2.5 2.5 3.1 4 .7 1.7 1 3.6 1 5.8zM220.1 2108c1.9 0 4.2-.5 6.9-1.4v10.4c-1.9.8-3.8 1.4-5.5 1.8-1.7.4-3.8.5-6.1.5-4.8 0-8.3-1.2-10.4-3.5-2.1-2.4-3.2-6-3.2-10.9v-17.1h-5v-5.8l6.4-4.5 3.7-8.7h9.4v8.3h10.2v10.7h-10.2v16.2c-.1 2.6 1.2 4 3.8 4z"/></g><g class="st6"><path class="st7" d="M-198.9 2189.2h-31.9v-5.7l12.1-12.2c3.6-3.7 6-6.3 7.1-7.8 1.2-1.5 2-3 2.6-4.3.5-1.4.8-2.8.8-4.3 0-2.1-.6-3.8-1.9-5-1.3-1.2-3-1.8-5.3-1.8-1.8 0-3.6.3-5.2 1-1.7.7-3.6 1.9-5.8 3.6l-4.1-5c2.6-2.2 5.2-3.8 7.6-4.7 2.5-.9 5.1-1.4 7.9-1.4 4.4 0 7.9 1.1 10.5 3.4 2.6 2.3 4 5.4 4 9.2 0 2.1-.4 4.1-1.1 6.1-.8 1.9-1.9 3.9-3.5 5.9-1.6 2-4.2 4.8-7.9 8.2l-8.2 7.9v.3h22.4v6.6zM-161.2 2165.6c0 8.2-1.3 14.3-3.9 18.2-2.6 4-6.7 6-12.1 6-5.2 0-9.2-2.1-11.9-6.2s-4.1-10.1-4.1-18c0-8.3 1.3-14.4 3.9-18.4 2.6-3.9 6.6-5.9 12-5.9 5.3 0 9.2 2.1 12 6.2s4.1 10.1 4.1 18.1zm-24.4 0c0 6.4.7 11 2 13.8 1.3 2.8 3.4 4.1 6.3 4.1s5-1.4 6.4-4.2c1.3-2.8 2-7.4 2-13.7 0-6.3-.7-10.9-2-13.7-1.3-2.8-3.5-4.2-6.4-4.2s-5 1.4-6.3 4.2c-1.3 2.7-2 7.3-2 13.7zM-133.3 2189.2h-7.6v-30.4c0-3.6.1-6.5.3-8.6-.5.5-1.1 1.1-1.8 1.7-.7.6-3.1 2.6-7.2 5.9l-3.8-4.8 13.9-10.9h6.3v47.1zM-101.8 2159.7c4.7 0 8.5 1.3 11.3 3.8s4.2 5.9 4.2 10.3c0 5-1.6 9-4.7 11.8-3.1 2.8-7.6 4.2-13.4 4.2-5.3 0-9.4-.8-12.4-2.5v-6.9c1.7 1 3.7 1.8 6 2.3s4.4.8 6.3.8c3.4 0 6-.8 7.8-2.3 1.8-1.5 2.7-3.8 2.7-6.7 0-5.6-3.6-8.4-10.8-8.4-1 0-2.3.1-3.7.3-1.5.2-2.8.4-3.9.7l-3.4-2 1.8-23h24.5v6.7h-17.8l-1.1 11.7c.8-.1 1.7-.3 2.8-.5.9-.2 2.2-.3 3.8-.3zM-32.5 2176.4c0 4.2-1.5 7.5-4.5 9.9s-7.2 3.6-12.5 3.6-9.7-.8-13.1-2.5v-7.3c2.1 1 4.4 1.8 6.8 2.4 2.4.6 4.7.9 6.8.9 3.1 0 5.3-.6 6.8-1.7 1.4-1.2 2.2-2.7 2.2-4.7 0-1.8-.7-3.3-2-4.5-1.3-1.2-4.1-2.7-8.2-4.3-4.3-1.7-7.3-3.7-9.1-6-1.8-2.2-2.6-4.9-2.6-8.1 0-3.9 1.4-7 4.2-9.3 2.8-2.3 6.5-3.4 11.2-3.4 4.5 0 9 1 13.5 3l-2.4 6.3c-4.2-1.8-7.9-2.6-11.2-2.6-2.5 0-4.4.5-5.7 1.6-1.3 1.1-1.9 2.5-1.9 4.3 0 1.2.3 2.3.8 3.1.5.9 1.4 1.7 2.5 2.5 1.2.8 3.3 1.8 6.4 3.1 3.5 1.4 6 2.8 7.6 4s2.8 2.7 3.5 4.2c.5 1.5.9 3.3.9 5.5zM-8.6 2189.8c-5.5 0-9.9-1.6-13-4.8-3.1-3.2-4.7-7.7-4.7-13.4 0-5.8 1.5-10.4 4.4-13.7s6.9-5 12-5c4.7 0 8.4 1.4 11.2 4.3s4.1 6.8 4.1 11.8v4.1h-23.8c.1 3.5 1 6.1 2.8 8 1.8 1.9 4.2 2.8 7.4 2.8 2.1 0 4.1-.2 5.9-.6 1.8-.4 3.8-1.1 5.8-2v6.2c-1.8.9-3.7 1.5-5.6 1.9s-4.1.4-6.5.4zm-1.4-31.2c-2.4 0-4.3.8-5.8 2.3-1.4 1.5-2.3 3.7-2.6 6.7h16.2c0-2.9-.8-5.2-2.1-6.7-1.4-1.5-3.3-2.3-5.7-2.3zM36.1 2189.2l-1.5-5h-.3c-1.7 2.2-3.4 3.6-5.2 4.4s-4 1.2-6.7 1.2c-3.5 0-6.2-.9-8.2-2.8-2-1.9-2.9-4.6-2.9-8 0-3.7 1.4-6.4 4.1-8.3 2.7-1.9 6.9-2.9 12.5-3.1l6.2-.2v-1.9c0-2.3-.5-4-1.6-5.1-1.1-1.1-2.7-1.7-4.9-1.7-1.8 0-3.6.3-5.3.8s-3.3 1.2-4.8 1.9l-2.4-5.4c1.9-1 4-1.8 6.3-2.3 2.3-.5 4.5-.8 6.5-.8 4.5 0 8 1 10.3 3 2.3 2 3.5 5.1 3.5 9.3v24h-5.6zm-11.3-5.2c2.8 0 5-.8 6.6-2.3 1.7-1.5 2.5-3.7 2.5-6.5v-3.1l-4.6.2c-3.6.1-6.2.7-7.8 1.8-1.6 1.1-2.4 2.7-2.4 4.9 0 1.6.5 2.8 1.4 3.7 1 .9 2.4 1.3 4.3 1.3zM76 2179c0 3.5-1.3 6.2-3.8 8-2.5 1.9-6.2 2.8-10.9 2.8s-8.6-.7-11.4-2.2v-6.5c4.2 1.9 8.1 2.9 11.7 2.9 4.7 0 7-1.4 7-4.2 0-.9-.3-1.7-.8-2.3s-1.4-1.2-2.5-1.9c-1.2-.6-2.8-1.4-4.9-2.2-4.1-1.6-6.9-3.2-8.3-4.8-1.5-1.6-2.2-3.7-2.2-6.2 0-3.1 1.2-5.4 3.7-7.1 2.5-1.7 5.8-2.5 10-2.5s8.2.8 11.9 2.5l-2.4 5.7c-3.8-1.6-7.1-2.4-9.7-2.4-4 0-6 1.1-6 3.4 0 1.1.5 2.1 1.6 2.8 1 .8 3.3 1.8 6.8 3.2 2.9 1.1 5.1 2.2 6.4 3.1 1.3.9 2.3 2 3 3.3.5 1.4.8 2.9.8 4.6zM115.8 2171.3c0 5.8-1.5 10.4-4.5 13.6-3 3.3-7.1 4.9-12.5 4.9-3.3 0-6.3-.8-8.8-2.3s-4.5-3.7-5.9-6.5c-1.4-2.8-2.1-6.1-2.1-9.8 0-5.8 1.5-10.3 4.4-13.5s7.1-4.9 12.5-4.9c5.2 0 9.2 1.7 12.2 5 3.2 3.4 4.7 7.8 4.7 13.5zm-25.9 0c0 8.2 3 12.3 9.1 12.3 6 0 9-4.1 9-12.3 0-8.1-3-12.2-9.1-12.2-3.2 0-5.5 1.1-6.9 3.2-1.4 2-2.1 5-2.1 9zM155.9 2189.2h-7.6v-21.9c0-2.8-.6-4.8-1.7-6.2-1.1-1.4-2.9-2-5.3-2-3.2 0-5.5.9-7 2.8s-2.2 5.1-2.2 9.5v17.8h-7.6v-35.6h5.9l1.1 4.7h.4c1.1-1.7 2.6-3 4.6-3.9 2-.9 4.2-1.4 6.6-1.4 8.6 0 12.8 4.4 12.8 13.1v23.1z"/></g></svg>