<svg id="Layer_1" xmlns="http://www.w3.org/2000/svg" viewBox="0 0 264.7 208.3"><style>.st0{fill-rule:evenodd;clip-rule:evenodd}.st0,.st1{fill:#eaf1f5}.st2,.st3,.st4,.st5,.st6,.st7{fill-rule:evenodd;clip-rule:evenodd;fill:#2b8690}.st3,.st4,.st5,.st6,.st7{fill:#206166}.st4,.st5,.st6,.st7{fill:#194d44}.st5,.st6,.st7{fill:#88cbc5}.st6,.st7{fill:#e77d1a}.st7{fill:#2f4861}</style><path class="st0" d="M36.3 28.7c.5-.6 1-1.2 1.4-1.8 1.3-1.7 2.6-3.3 3.8-5 .4-.6.7-1.3.7-2.1-.1 0-.1-.1-.2 0-2.8.2-5.5-.7-8-1.7-1.1-.4-2.2-.9-3.4-1.4-.3-.1-.5-.3-.7-.5-.6-.7-.3-1.5.5-1.7.1 0 .1 0 .2-.1-.6-2-1.2-4-1.8-6.1h1.8c.1 0 .3.1.4.3.9 1.2 1.9 2.3 2.8 3.5 1.2 1.6 2.9 2.3 4.9 2.3h17c2.4 0 4.5.8 6.5 2.1.3.2.6.5.9.8.4.4.4.9-.1 1.2-.4.3-.9.6-1.4.7-.8.2-1.7.4-2.6.4-2 .1-4 0-5.9 0-.3 0-.6.1-.9.3-4.3 2.8-8.6 5.6-12.8 8.4-.4.2-.7.3-1.1.3-.6.1-1.2.1-2 .1zm25.1-11.8c-.5-.2-.9-.5-1.3-.6h-.3c-.5.1-.9.1-1.4.2-.3 0-.5.2-.6.5 0 .4.1.6.5.7 1.1.1 2.1-.1 3.1-.8zm-16.2.2c0-.3-.3-.7-.7-.7-.4 0-.7.3-.7.7 0 .4.3.7.7.7.4-.1.7-.4.7-.7zm-3.2-.7c-.4 0-.6.3-.6.7 0 .4.3.7.7.6.4 0 .6-.3.6-.7-.1-.3-.4-.6-.7-.6zm12.9 0c-.4 0-.7.3-.7.7 0 .4.3.7.6.7.4 0 .7-.3.7-.7 0-.4-.3-.7-.6-.7zm-2 .6c0-.4-.3-.7-.7-.7-.3 0-.7.3-.7.7 0 .4.3.7.7.7.4 0 .7-.3.7-.7zm-3.2-.6c-.4 0-.7.3-.7.7 0 .4.3.7.7.7.4 0 .7-.3.7-.7 0-.4-.3-.7-.7-.7zm-1.9.7c0-.4-.3-.7-.6-.7s-.7.3-.7.6c0 .4.3.7.7.7.3 0 .6-.3.6-.6zm-7.7 0c0-.4-.3-.7-.7-.7-.3 0-.7.3-.7.7 0 .4.3.7.7.7.4-.1.7-.4.7-.7z"/><path class="st0" d="M39.6 8H42c.1 0 .2.1.3.1 2.1 1.7 4.2 3.4 6.4 5.2l.1.1h-6.2c-.3 0-.4-.1-.6-.4-.7-1.6-1.5-3.1-2.2-4.7 0 0-.1-.1-.2-.3zm8.5 16c.9-.8 3.8-2.5 4.1-2.5-.7 1-.7 2.1 0 3.2-1.4 0-2.8.3-4.1-.7zM33 18.8c-.9.6-1.5 1.6-2.7 1.1.3-.6.7-1.2 1.1-1.8.5.2 1 .4 1.6.7zm19.1-6.3c-.2.3-.3.6-.5.9-1 .3-1.5-.3-2.2-.9h2.7zm.7 11.7c-.5-.6-.5-1.6 0-2.1.5.5.5 1.5 0 2.1z"/><path class="st1" d="M228.2 46.1h-12.8c-1.1 0-2.1-.9-2.1-2.1 0-1 .7-1.8 1.6-2h7.2c.1 0 .2 0 .3-.1.9-.2 1.6-1 1.6-2 0-1.1-.9-2-1.9-2.1h-26c-1.1 0-2.1.9-2.1 2.1 0 1 .7 1.8 1.6 2h-5.8c-1.1 0-2.1.9-2.1 2.1 0 1.1.9 2.1 2.1 2.1h12.1c1 .1 1.8 1 1.8 2.1 0 1-.8 1.9-1.8 2h-19.2c-1 .2-1.8 1-1.8 2 0 1.1.9 2.1 2.1 2.1h7.4c-.9.2-1.6 1-1.6 2 0 1.1.9 2.1 2.1 2.1h26c1.1-.1 1.9-1 1.9-2.1 0-1-.7-1.8-1.5-2-.1 0-.3-.1-.4-.1h-9.3c-.9-.2-1.5-1-1.5-2 0-1.1.9-2.1 2.1-2.1h20.2c1.1-.1 1.9-1 1.9-2.1-.2-.9-1.1-1.8-2.1-1.9zM89.7 85.9H65.2c-1.1 0-2 .9-2 2 0 1 .7 1.8 1.7 1.9H54.8c-1.1 0-2 .9-2 2s.9 2 2 2h7c-.9.2-1.5 1-1.5 1.9 0 1.1.9 2 2 2h24.5c1-.1 1.8-.9 1.8-1.9 0-1-.8-1.9-1.8-1.9h-8.4c-.9-.2-1.6-1-1.6-1.9 0-.9.7-1.7 1.6-1.9h11.3c1-.1 1.8-.9 1.8-1.9 0-1.4-.8-2.2-1.8-2.3z"/><path class="st2" d="M177.6 138H158v5.7h21.7V138z"/><path class="st3" d="M170.6 123.7c0-.2.1-.3.1-.5 0-.7-.3-1.3-.7-1.7.4-.1.7-.3.7-.6s-.4-.5-.9-.6v-.2c0-.5-.3-.9-.7-.9.1-.8.1-2 .1-3.3 0-2.4-.1-4.4-.3-4.4-.1 0-.3 2-.3 4.4 0 1.3 0 2.5.1 3.3-.4.1-.7.5-.7.9v.2c-.6.1-.9.3-.9.6 0 .2.3.4.7.6-.4.4-.7 1-.7 1.7 0 .2 0 .4.1.6-.4.2-.7.5-.8.8.3-.1.7-.2 1-.3.5-.1 1-.1 1.4-.1.5 0 1 0 1.4.1.5.1.9.2 1.3.4 0-.4-.4-.8-.9-1z"/><path class="st4" d="M171.7 124.7c-.4-.2-.9-.3-1.3-.4-.5-.1-1-.1-1.4-.1-.5 0-1 0-1.4.1-.4.1-.7.2-1 .3-3.8 1.3-6.6 5.4-6.6 10.4 0 1 .1 2 .3 3h17.5c.2-.9.3-1.9.3-3-.1-4.8-2.8-8.9-6.4-10.3zM100.9 112.8c0-1.8-1.2-3.4-2.7-3.7v-.6c0-1.2-.2-2.2-.4-2.2s-.4 1-.4 2.2v.6c-1.7.1-3 1.7-3 3.7 0 .5.1 1.1.3 1.5v-.6h5.8v.6c.2-.4.4-.9.4-1.5z"/><path class="st2" d="M94.7 113.8v6c1-.2 2-.3 3.1-.3 1 0 2 .1 2.9.3v-6h-6zm15.7 18.2h-27v3.1h29V132z"/><path class="st4" d="M100.5 119.9c-.9-.2-1.7-.3-2.7-.3-1 0-1.9.1-2.8.3-5.6 1.3-9.7 6.2-9.8 12.1h25.1c0-5.9-4.2-10.9-9.8-12.1z"/><path class="st5" d="M110 135.1H84.6v15.8h26.6v-15.8zm-11-7.4c0 .8-.6 1.4-1.4 1.4-.8 0-1.4-.6-1.4-1.4 0-.8.6-1.4 1.4-1.4.7 0 1.4.6 1.4 1.4z"/><path class="st3" d="M98.2 141.9c-.8 0-1.5.7-1.5 1.5v4.2h3.1v-4.2c-.1-.9-.8-1.5-1.6-1.5z"/><g><path class="st4" d="M214.2 133c0-.2-.1-.3-.3-.4v-1.3c0-1-.1-1.7-.1-1.7-.1 0-.1.8-.1 1.7v1.3c-.2 0-.3.2-.3.4s.2.4.4.4.4-.1.4-.4z"/><path class="st4" d="M214.5 134.7c.1-.1.1-.3.1-.5 0-.4-.4-.8-.8-.8s-.8.4-.8.8c0 .2.1.3.1.5-2 .3-3.6 2.1-3.6 4.2 0 .4.1.8.2 1.2h8.2c.1-.4.2-.8.2-1.2 0-2.1-1.6-3.9-3.6-4.2z"/><path class="st5" d="M216.3 142.3h-7.1v11.8h9.3v-11.8z"/><path class="st2" d="M217.9 140h-9.1v2.3h10.1V140z"/><path class="st3" d="M213.7 144.7c-.8 0-1.5.9-1.5 2v5.4h2.9v-5.4c.1-1.1-.6-2-1.4-2z"/><circle class="st5" cx="213.8" cy="137.4" r=".5"/></g><g><path class="st3" d="M198.5 164.7H224v40.9h-25.5z"/><path class="st2" d="M224 166.4h22.6v37.3H224z"/><path class="st4" d="M246.7 168.7h14.8v33.1h-14.8z"/><path class="st6" d="M135 8.3h10.8v2.3H135z"/><path class="st7" d="M135 5.6h10.8v2.7H135z"/><path class="st4" d="M134.3 26.3l-5.4 3.4h12.3l-4.9-3.4h-1.1V4.5c.5-.1.9-.5.9-1s-.4-.9-.9-1V0h-.2v2.5c-.5.1-.9.5-.9 1s.4.9.9 1v21.8h-.7z"/><path class="st2" d="M121.9 35.3h26.7v4.9h-26.7z"/><path class="st3" d="M121 40.2h28.4v1.9H121zm9.6-10.5h2.3v5.6h-2.3zm6.8 0h2.3v5.6h-2.3zm-3.4 0h2.3v5.6H134z"/><path class="st2" d="M124.2 51.3h21.9v33.1h-21.9z"/><path class="st5" d="M121.7 86.7h26.8v46.5h-26.8z"/><path class="st2" d="M120.1 133.1h30.1v3h-30.1z"/><path class="st3" d="M120.1 136.1h30.1v6h-30.1z"/><path class="st5" d="M222.9 166.4h-21.5l-18.5-22.2h20.6z"/><path class="st4" d="M249.7 168.7h-24.9l-19.3-22.1h21.4z"/><path class="st2" d="M264.7 169.9h-14l-20.9-20.7H242zm-197.5-7.4h132.4v43.1H67.2z"/><path class="st5" d="M112.3 162.5h44v45.7h-44z"/><path class="st4" d="M199.6 162.5H67.2l17.3-20.3h97.7z"/><path class="st2" d="M115.6 159.6h38.2v3h-38.2z"/><path class="st5" d="M121.2 156.1h26.9v3h-26.9z"/><path class="st4" d="M72.2 164.7h3.5v5.1h-3.5zm0 9.3h3.5v5.1h-3.5zm0 9.5h3.5v5.1h-3.5zm0 9.2h3.5v5.1h-3.5zm7.9-28h3.5v5.1h-3.5zm0 9.3h3.5v5.1h-3.5zm0 9.5h3.5v5.1h-3.5zm0 9.2h3.5v5.1h-3.5zm17.8-28h3.5v5.1h-3.5zm0 9.3h3.5v5.1h-3.5zm0 9.5h3.5v5.1h-3.5zm0 9.2h3.5v5.1h-3.5zm7.9-28h3.5v5.1h-3.5zm0 9.3h3.5v5.1h-3.5zm0 9.5h3.5v5.1h-3.5zm0 9.2h3.5v5.1h-3.5zm-16.7-28h3.5v5.1h-3.5zm0 9.3h3.5v5.1h-3.5zm0 9.5h3.5v5.1h-3.5zm-.6 9.2H93v13h-4.5zm27.6-25.4h3.5v5.1h-3.5zm0 9.3h3.5v5.1h-3.5zm0 9.4h3.5v5.1h-3.5zm-.5 9.3h4.5v13h-4.5zm8.7-28h3.5v5.1h-3.5zm0 9.3h3.5v5.1h-3.5zm0 9.4h3.5v5.1h-3.5zm-.5 9.3h4.5v13h-4.5zM132.4 167.3h3.5v5.1h-3.5zm0 9.3h3.5v5.1h-3.5zm0 9.4h3.5v5.1h-3.5zm-.5 9.3h4.5v13h-4.5zM140.6 167.3h3.5v5.1h-3.5zm0 9.3h3.5v5.1h-3.5zm0 9.4h3.5v5.1h-3.5zm-.5 9.3h4.5v13h-4.5zM149.3 167.3h3.5v5.1h-3.5zm0 9.3h3.5v5.1h-3.5zm0 9.4h3.5v5.1h-3.5zm-.6 9.3h4.5v13h-4.5zM175.5 164.7h3.5v5.1h-3.5zm0 9.3h3.5v5.1h-3.5zm0 9.5h3.5v5.1h-3.5zm-.6 9.2h4.5v13h-4.5zM159.3 164.7h3.5v5.1h-3.5zm0 9.3h3.5v5.1h-3.5zm0 9.5h3.5v5.1h-3.5zm0 9.2h3.5v5.1h-3.5zm7.9-28h3.5v5.1h-3.5zm0 9.3h3.5v5.1h-3.5zm0 9.5h3.5v5.1h-3.5zm0 9.2h3.5v5.1h-3.5zM183.3 164.7h3.5v5.1h-3.5zm0 9.3h3.5v5.1h-3.5zm0 9.5h3.5v5.1h-3.5zm0 9.2h3.5v5.1h-3.5zm7.9-28h3.5v5.1h-3.5zm0 9.3h3.5v5.1h-3.5zm0 9.5h3.5v5.1h-3.5zm0 9.2h3.5v5.1h-3.5z"/><path class="st2" d="M124.2 44.2h21.9v1.4h-21.9z"/><path class="st5" d="M146.2 44.2h-22l-2.5-2.2h26.8z"/><path class="st4" d="M125 42.1h.9v2.4h-.9zm2.4 0h.9v2.4h-.9zm2.4 0h.9v2.4h-.9zm2.4 0h.9v2.4h-.9zm2.6 0h.9v2.4h-.9zm2.5 0h.9v2.4h-.9zm2.4 0h.9v2.4h-.9zm2.4 0h.9v2.4h-.9zm2.2 0h.9v2.4h-.9z"/><path class="st5" d="M124.2 45.5h21.9v5.2h-21.9z"/><path class="st4" d="M124.2 50.8h21.9v.5h-21.9z"/><path class="st2" d="M133.3 48.2h3.6V50h-3.6z"/><path class="st5" d="M128.3 53.5h13.4v30.9h-13.4zm-8.9 30.9h31.5v1h-31.5z"/><path class="st2" d="M121.1 85.4h28v1.1h-28z"/><path class="st4" d="M123.8 86.5h1.3v3h-1.3zm3.1 0h1.3v3h-1.3zm3 0h1.3v3h-1.3zm3.2 0h1.3v3h-1.3zm3 0h1.3v3h-1.3zm3.1 0h1.3v3h-1.3zm2.8 0h1.3v3H142zm3.2 0h1.3v3h-1.3zM121.7 95.7h26.8v.9h-26.8z"/><path class="st3" d="M130.9 97.7h8.1v8.1h-8.1z"/><path class="st2" d="M132.8 99.5h4.7v4.7h-4.7z"/><path class="st5" d="M136.9 101.8c0 .9-.7 1.7-1.7 1.7-.9 0-1.7-.7-1.7-1.7 0-.9.7-1.7 1.7-1.7.9.1 1.7.8 1.7 1.7z"/><path class="st3" d="M135.1 111.6c-2.2 0-4 1.8-4 4v14.7h8.1v-14.7c0-2.2-1.8-4-4.1-4z"/><path class="st4" d="M138.5 60.7c0 2-1.6 3.7-3.7 3.7-2 0-3.7-1.6-3.7-3.7 0-2 1.6-3.7 3.7-3.7s3.7 1.7 3.7 3.7z"/><path class="st2" d="M130 55.6h9.9v.6H130zm-.2 10h10.3v.7h-10.3zm.8 6.1h8.4v.7h-8.4z"/><path class="st3" d="M131.6 73.1h6.4v11.3h-6.4z"/><path class="st4" d="M119.4 81.8h31.5v2.6h-31.5z"/></g><g><path class="st4" d="M40.3 113.8c0-.4-.3-.8-.7-.9.1-.8.1-1.9.1-3.1 0-2.3-.1-4.1-.3-4.1-.2 0-.3 1.8-.3 4.1 0 1.3 0 2.4.1 3.1-.4.1-.7.4-.7.9s.4.9.9.9.9-.4.9-.9z"/><path class="st4" d="M39.4 114.7c-1.1 0-1.9.9-1.9 1.9 0 .4.1.8.4 1.1v11.9H41v-11.9c.2-.3.4-.7.4-1.1 0-1.1-.9-1.9-2-1.9z"/><path class="st2" d="M52.7 142.9h14.4v20.2H52.7z"/><path class="st5" d="M26.1 144.2h26.6v55.2H26.1z"/><path class="st4" d="M25.8 144.3L39.4 127l13.7 17.3zm26.8-1.2l7.5-4.8 7.4 4.8zM0 153h26.1v10.1H0zm26.1 10.1h41.1v2.9H26.1z"/><path class="st5" d="M26.1 166h26.5v33.4H26.1z"/><path class="st2" d="M52.6 166h14.6v33.4H52.6zM0 163.1h26.1v36.3H0z"/><path class="st4" d="M0 199.4h67.2v6.3H0zM40.3 154.1c-1 0-1.8.8-1.8 1.8v5h3.6v-5c0-1-.8-1.8-1.8-1.8zm19.8-3.4c-1 0-1.8 1.1-1.8 2.5v6.8h3.6v-6.8c0-1.4-.8-2.5-1.8-2.5zm-10.2 4.7c-.7 0-1.2.7-1.2 1.5v4h2.5v-4c-.1-.9-.7-1.5-1.3-1.5zm-19.5 0c-.7 0-1.2.7-1.2 1.5v4h2.5v-4c-.1-.9-.6-1.5-1.3-1.5zM28 190.7h2.4v2.4H28zm0-12.9h2.4v2.4H28zm31.9-6.9c-1 0-1.8 1.1-1.8 2.5v6.9h3.6v-6.9c0-1.4-.8-2.5-1.8-2.5zm-54-4.9h3.4v7H5.9zm8.3 0h3.4v7h-3.4zm-8.3 12.1h3.4v7H5.9zm8.3 0h3.4v7h-3.4zm-8.3 12.6h3.4v7H5.9zm8.3 0h3.4v7h-3.4z"/></g><g><path class="st2" d="M254.3 90.2v-.8c-.3-3.4-2.7-6.2-5.8-7.3-1-.4-2-.6-3-.5-.1 0-.1.1-.2.2 0 0-.1 0-.1.1h.1c.5.3 1 .7 1.4 1 1.1 1 2.3 1.9 3.3 3l.2.2c1.3 1.6 2.1 3.6 2 6.1-.2 4.8-2.2 8.8-5.6 12.1-.2.2-.4.2-.7.2 0-.2.1-.4.2-.5 2.1-3.5 3.2-7.3 3.6-11.4.4-4.2-1.8-7.5-4.3-10.6l-.1-.1v.6c.4 2.5.9 4.9 1.1 7.4.1 1.8.2 3.5.2 5.2-.2 2.7-.6 5.3-.9 7.9-.1.2-.1.5-.2.7-.1.3-.3.5-.5.7-.2-.2-.4-.5-.5-.7-.1-.2-.1-.5-.2-.7-.4-2.6-.8-5.3-.9-7.9 0-1.7 0-3.5.2-5.2.2-2.5.7-4.9 1.1-7.4v-.6c0 .1-.1.1-.1.1-2.5 3.1-4.6 6.3-4.3 10.6.3 4 1.5 7.8 3.6 11.4.1.1.2.3.2.5-.3 0-.5-.1-.7-.2-3.3-3.4-5.3-7.4-5.6-12.1-.1-2.5.7-4.5 2-6.1l.2-.2c1-1.1 2.2-2 3.3-3 .5-.3.9-.7 1.4-1h.1s-.1 0-.1-.1c-.1-.1-.1-.2-.2-.2-1.1 0-2.1.2-3 .5-3.1 1.1-5.5 3.9-5.8 7.3v1.7c.1 1.4.3 2.7.7 4 1.1 3.6 3.6 6.3 6.1 8.9.5.5.9.8 1.3 1 .4.2.9.4 1.4.4.5 0 1-.1 1.4-.4.4-.2.9-.6 1.3-1 2.5-2.6 5-5.3 6.1-8.9.4-1.3.6-2.6.7-4v-.8c-.4 0-.4 0-.4-.1zm-12 16.8h5v4.4h-5z"/></g></svg>