<?xml version="1.0" encoding="UTF-8" standalone="no"?>
<svg
   xmlns:dc="http://purl.org/dc/elements/1.1/"
   xmlns:cc="http://creativecommons.org/ns#"
   xmlns:rdf="http://www.w3.org/1999/02/22-rdf-syntax-ns#"
   xmlns:svg="http://www.w3.org/2000/svg"
   xmlns="http://www.w3.org/2000/svg"
   viewBox="0 0 815.5733 544.69336"
   height="544.69336"
   width="815.5733"
   xml:space="preserve"
   id="svg2"
   version="1.1"><metadata
     id="metadata8"><rdf:RDF><cc:Work
         rdf:about=""><dc:format>image/svg+xml</dc:format><dc:type
           rdf:resource="http://purl.org/dc/dcmitype/StillImage" /></cc:Work></rdf:RDF></metadata><defs
     id="defs6"><clipPath
       id="clipPath20"
       clipPathUnits="userSpaceOnUse"><path
         id="path18"
         d="M 0,0 H 6116.82 V 4085 H 0 Z" /></clipPath></defs><g
     transform="matrix(1.3333333,0,0,-1.3333333,0,544.69333)"
     id="g10"><g
       transform="scale(0.1)"
       id="g12"><g
         id="g14"><g
           clip-path="url(#clipPath20)"
           id="g16"><path
             id="path22"
             style="fill:#45414e;fill-opacity:1;fill-rule:nonzero;stroke:none"
             d="m 4794.72,2229.49 c 69.98,0 104.55,54.31 104.55,108.61 0,55.17 -34.57,109.48 -104.55,109.48 h -126.75 v -218.09 z m 0,302.04 c 124.28,0 186.84,-96.3 186.84,-192.6 0,-96.29 -62.56,-191.76 -186.84,-191.76 H 4667.97 V 1955.4 h -83.95 v 576.13 h 210.7" /><path
             id="path24"
             style="fill:#45414e;fill-opacity:1;fill-rule:nonzero;stroke:none"
             d="m 5133.02,2247.59 h 97.13 c 69.95,0 104.52,50.21 104.52,100.4 0,49.38 -34.57,99.59 -104.52,99.59 H 5102.58 V 1955.4 h -82.32 v 576.13 h 209.89 c 125.09,0 187.64,-92.17 187.64,-183.54 0,-81.47 -50.21,-158.83 -148.97,-176.13 l 181.91,-216.46 h -107.84 l -209.87,252.66 v 39.53" /><path
             id="path26"
             style="fill:#3a76c4;fill-opacity:1;fill-rule:nonzero;stroke:none"
             d="m 4248.71,2225.41 h -132.47 v 227.94 h 132.47 c 73.11,0 109.24,-56.77 109.24,-114.41 0,-56.77 -36.13,-113.53 -109.24,-113.53 z m -1205.7,102.84 c 0,-52.47 -47.5,-130.37 -120.62,-130.37 h -132.45 v 255.46 h 133.32 c 73.12,0 119.75,-73.48 119.75,-125.09 z m -708.31,-130.37 75.69,212.46 73.99,-212.46 z m 1914.01,343.2 h -365.85 v -0.85 h -0.61 V 2119.6 c 0,-66.23 -71.39,-99.78 -134.19,-99.78 -63.65,0 -135.05,32.69 -135.05,98.92 v 422.34 h -909.09 v -343.2 h -124.79 l -137.77,343.2 h -736.58 v -0.45 c -64.11,-2.99 -124.83,-24.93 -162.27,-73.52 -25.8,-33.55 -36.12,-73.97 -32.67,-114.4 v 0.85 c 9.45,-125.58 119.56,-146.22 213.32,-155.68 60.2,-6.02 122.13,-13.77 132.45,-59.36 1.73,-7.74 2.59,-14.62 2.59,-20.64 0,-61.93 -70.53,-98.06 -135.04,-98.06 -55.92,0 -123.87,29.25 -129.89,85.16 v -3.44 l -0.87,12.9 -87.73,-1.72 0.86,-16.35 c 11.18,-107.52 123.87,-162.57 216.76,-162.57 108.38,0 223.64,67.09 223.64,183.22 0,12.04 -1.71,26.66 -4.3,39.57 -23.22,96.34 -125.58,117.84 -208.16,128.16 -64.51,6.02 -132.47,13.76 -136.76,75.7 -1.72,20.64 2.58,40.42 14.62,55.91 21.99,28.27 56.8,35.56 93.45,37.28 v -0.3 h 297.94 v -516.96 h 86.88 v 516.96 h 252.89 L 2136,1938.96 h 93.76 c 18.93,49.89 49.03,122.15 72.25,177.2 l 215.94,-0.09 72.22,-177.11 h 92.9 l -71.09,177.11 h 91.94 v -177.11 h 86.02 v 177.11 h 71.96 l 179.22,-177.11 h 112.67 l -190.97,179.78 c 103.22,18.06 167.07,124.35 167.07,209.51 0,41.38 -14.3,86.83 -41.09,125.09 h 166.44 v -516.96 h 86.88 v 516.96 h 183.16 V 2119.6 c 0,-123 116.99,-186.66 222.78,-186.66 103.23,0 221.93,63.66 221.93,185.8 v 334.61 h 58.52 v -514.38 h 87.73 v 200.42 h 132.47 c 129.88,0 195.26,99.78 195.26,200.42 0,100.64 -65.38,201.27 -195.26,201.27" /><path
             id="path28"
             style="fill:#45414e;fill-opacity:1;fill-rule:nonzero;stroke:none"
             d="m 1015.21,2521.9 c -157.929,0 -286.413,-128.48 -286.413,-286.4 0,-157.93 128.484,-286.42 286.413,-286.42 157.93,0 286.41,128.49 286.41,286.42 0,157.92 -128.48,286.4 -286.41,286.4 z m 0,-635.8 c -192.659,0 -349.398,156.74 -349.398,349.4 0,192.65 156.739,349.39 349.398,349.39 192.65,0 349.39,-156.74 349.39,-349.39 0,-192.66 -156.74,-349.4 -349.39,-349.4" /><path
             id="path30"
             style="fill:#3a76c4;fill-opacity:1;fill-rule:nonzero;stroke:none"
             d="m 1073.69,2333.81 c 0,-4.96 3.39,-11.17 7.3,-14.24 24.97,-19.57 41.04,-49.97 41.04,-84.07 0,-58.91 -47.92,-106.83 -106.83,-106.83 -58.895,0 -106.821,47.92 -106.821,106.83 0,34.1 16.082,64.5 41.039,84.07 3.91,3.07 7.305,9.28 7.305,14.24 v 29.61 c 0,17.4 -13.442,26.86 -28.375,17.93 -49.637,-29.66 -82.946,-83.94 -82.946,-145.85 0,-93.64 76.176,-169.81 169.798,-169.81 93.64,0 169.81,76.17 169.81,169.81 0,61.91 -33.31,116.19 -82.94,145.85 -14.93,8.93 -28.38,-0.53 -28.38,-17.92 v -29.62" /><path
             id="path32"
             style="fill:#3a76c4;fill-opacity:1;fill-rule:nonzero;stroke:none"
             d="m 1046.69,2315.46 c 0,-17.31 -14.17,-31.49 -31.49,-31.49 v 0 c -17.317,0 -31.481,14.18 -31.481,31.49 v 85.48 c 0,17.32 14.164,31.49 31.481,31.49 v 0 c 17.32,0 31.49,-14.17 31.49,-31.49 v -85.48" /><path
             id="path34"
             style="fill:#918f90;fill-opacity:1;fill-rule:nonzero;stroke:none"
             d="m 2156.04,1545.04 c 4.73,-23.27 15.98,-40.36 41.43,-40.36 19.98,0 35.63,10.9 35.63,31.98 0,23.26 -19.63,29.08 -38.17,36.72 -27.64,11.63 -53.8,18.9 -53.8,54.53 0,31.98 25.81,49.81 55.63,49.81 31.62,0 50.16,-18.19 57.77,-47.62 l -23.26,-6.91 c -4.34,18.54 -14.17,31.62 -34.9,31.62 -15.62,0 -30.88,-8 -30.88,-25.1 0,-17.8 10.9,-22.88 25.45,-29.43 l 40.33,-17.81 c 17.09,-9.44 26.19,-24.73 26.19,-44.34 0,-35.99 -25.1,-56.36 -59.99,-56.36 -35.26,0 -57.43,22.56 -63.24,56.36 l 21.81,6.91" /><path
             id="path36"
             style="fill:#918f90;fill-opacity:1;fill-rule:nonzero;stroke:none"
             d="m 2485.35,1674.44 h 118.15 v -21.82 h -93.79 v -56.71 h 77.43 v -21.79 h -77.43 v -67.25 h 93.79 v -21.82 h -118.15 v 189.39" /><path
             id="path38"
             style="fill:#918f90;fill-opacity:1;fill-rule:nonzero;stroke:none"
             d="m 2886.63,1506.87 c 21.47,0 41.45,4.72 41.45,30.52 0,18.9 -12.37,34.16 -35.63,34.16 h -34.16 v -64.68 z m -1.09,86.5 c 21.11,0 31.65,13.46 31.65,30.53 0,22.55 -16,28.72 -33.1,28.72 h -25.8 v -59.25 z m -71.24,-108.32 v 21.82 h 19.63 v 145.75 h -19.63 v 21.82 h 59.61 c 48,0 68.7,-18.19 68.7,-50.54 0,-16.36 -6.91,-30.89 -21.44,-38.89 20.73,-6.55 32.36,-24.35 32.36,-45.79 0,-34.18 -22.55,-54.17 -62.17,-54.17 h -77.06" /><path
             id="path40"
             style="fill:#918f90;fill-opacity:1;fill-rule:nonzero;stroke:none"
             d="m 3222.14,1587.91 c 23.62,0 39.26,13.46 39.26,34.9 0,17.09 -10.18,29.81 -32,29.81 h -39.26 v -64.71 z m -56.33,86.53 h 64.33 c 31.62,0 56.71,-14.91 56.71,-51.63 0,-23.27 -15.64,-46.15 -38.55,-53.06 l 46.53,-76.7 -21.08,-12.73 -48.34,85.8 h -35.27 v -81.07 h -24.33 v 189.39" /><path
             id="path42"
             style="fill:#918f90;fill-opacity:1;fill-rule:nonzero;stroke:none"
             d="m 3562.39,1646.07 -26.89,-87.6 h 53.79 z m -33.45,-109.41 -17.8,-56.34 -24,8.71 59.61,185.41 h 31.26 l 59.61,-185.41 -23.97,-8.71 -17.45,56.34 h -67.26" /><path
             id="path44"
             style="fill:#918f90;fill-opacity:1;fill-rule:nonzero;stroke:none"
             d="m 3852.08,1674.44 h 118.15 v -21.82 h -93.79 v -56.71 h 77.44 v -21.79 h -77.44 v -67.25 h 93.79 v -21.82 h -118.15 v 189.39" /><path
             id="path46"
             style="fill:none;stroke:#918f90;stroke-width:23.76609993;stroke-linecap:butt;stroke-linejoin:miter;stroke-miterlimit:10;stroke-dasharray:none;stroke-opacity:1"
             d="M 665.812,1579.38 H 1942.86" /><path
             id="path48"
             style="fill:none;stroke:#918f90;stroke-width:23.76609993;stroke-linecap:butt;stroke-linejoin:miter;stroke-miterlimit:10;stroke-dasharray:none;stroke-opacity:1"
             d="M 4173.69,1579.38 H 5450.73" /></g></g></g></g></svg>