<svg width="650" height="200" xmlns="http://www.w3.org/2000/svg">
 <metadata id="metadata8">image/svg+xml</metadata>
 <defs>
  <clipPath clipPathUnits="userSpaceOnUse" id="clipPath20">
   <path d="m-628.270802,1310.095322l6116.82,0l0,4085l-6116.82,0l0,-4085z" id="path18"/>
  </clipPath>
 </defs>
 <g>
  <title>background</title>
  <rect fill="none" id="canvas_background" height="202" width="652" y="-1" x="-1"/>
 </g>
 <g>
  <title>Layer 1</title>
  <g id="g10" transform="matrix(1.3333333,0,0,-1.3333333,0,544.69333) ">
   <g id="g12" transform="translate(0.75,-0.75) scale(0.10000000149011612) ">
    <g id="g14">
     <g id="g16" clip-path="url(#clipPath20)">
      <path fill="#45414e" fill-rule="nonzero" d="m4166.449198,3539.585322c69.98,0 104.55,54.31 104.55,108.61c0,55.17 -34.57,109.48 -104.55,109.48l-126.75,0l0,-218.09l126.75,0zm0,302.04c124.28,0 186.84,-96.3 186.84,-192.6c0,-96.29 -62.56,-191.76 -186.84,-191.76l-126.75,0l0,-191.77l-83.95,0l0,576.13l210.7,0" id="path22"/>
      <path fill="#45414e" fill-rule="nonzero" d="m4504.749198,3557.685322l97.13,0c69.95,0 104.52,50.21 104.52,100.4c0,49.38 -34.57,99.59 -104.52,99.59l-127.57,0l0,-492.18l-82.32,0l0,576.13l209.89,0c125.09,0 187.64,-92.17 187.64,-183.54c0,-81.47 -50.21,-158.83 -148.97,-176.13l181.91,-216.46l-107.84,0l-209.87,252.66l0,39.53" id="path24"/>
      <path fill="#3a76c4" fill-rule="nonzero" d="m3620.439198,3535.505322l-132.47,0l0,227.94l132.47,0c73.11,0 109.24,-56.77 109.24,-114.41c0,-56.77 -36.13,-113.53 -109.24,-113.53zm-1205.7,102.84c0,-52.47 -47.5,-130.37 -120.62,-130.37l-132.45,0l0,255.46l133.32,0c73.12,0 119.75,-73.48 119.75,-125.09zm-708.31,-130.37l75.69,212.46l73.99,-212.46l-149.68,0zm1914.01,343.2l-365.85,0l0,-0.85l-0.61,0l0,-420.63c0,-66.23 -71.39,-99.78 -134.19,-99.78c-63.65,0 -135.05,32.69 -135.05,98.92l0,422.34l-909.09,0l0,-343.2l-124.79,0l-137.77,343.2l-736.58,0l0,-0.45c-64.11,-2.99 -124.83,-24.93 -162.27,-73.52c-25.8,-33.55 -36.12,-73.97 -32.67,-114.4l0,0.85c9.45,-125.58 119.56,-146.22 213.32,-155.68c60.2,-6.02 122.13,-13.77 132.45,-59.36c1.73,-7.74 2.59,-14.62 2.59,-20.64c0,-61.93 -70.53,-98.06 -135.04,-98.06c-55.92,0 -123.87,29.25 -129.89,85.16l0,-3.44l-0.87,12.9l-87.73,-1.72l0.86,-16.35c11.18,-107.52 123.87,-162.57 216.76,-162.57c108.38,0 223.64,67.09 223.64,183.22c0,12.04 -1.71,26.66 -4.3,39.57c-23.22,96.34 -125.58,117.84 -208.16,128.16c-64.51,6.02 -132.47,13.76 -136.76,75.7c-1.72,20.64 2.58,40.42 14.62,55.91c21.99,28.27 56.8,35.56 93.45,37.28l0,-0.3l297.94,0l0,-516.96l86.88,0l0,516.96l252.89,0l-206.49,-514.38l93.76,0c18.93,49.89 49.03,122.15 72.25,177.2l215.94,-0.09l72.22,-177.11l92.9,0l-71.09,177.11l91.94,0l0,-177.11l86.02,0l0,177.11l71.96,0l179.22,-177.11l112.67,0l-190.97,179.78c103.22,18.06 167.07,124.35 167.07,209.51c0,41.38 -14.3,86.83 -41.09,125.09l166.44,0l0,-516.96l86.88,0l0,516.96l183.16,0l0,-333.74c0,-123 116.99,-186.66 222.78,-186.66c103.23,0 221.93,63.66 221.93,185.8l0,334.61l58.52,0l0,-514.38l87.73,0l0,200.42l132.47,0c129.88,0 195.26,99.78 195.26,200.42c0,100.64 -65.38,201.27 -195.26,201.27" id="path26"/>
      <path fill="#45414e" fill-rule="nonzero" d="m386.939198,3831.995322c-157.929,0 -286.413,-128.48 -286.413,-286.4c0,-157.93 128.484,-286.42 286.413,-286.42c157.93,0 286.41,128.49 286.41,286.42c0,157.92 -128.48,286.4 -286.41,286.4zm0,-635.8c-192.659,0 -349.398,156.74 -349.398,349.4c0,192.65 156.739,349.39 349.398,349.39c192.65,0 349.39,-156.74 349.39,-349.39c0,-192.66 -156.74,-349.4 -349.39,-349.4" id="path28"/>
      <path fill="#3a76c4" fill-rule="nonzero" d="m445.419198,3643.905322c0,-4.96 3.39,-11.17 7.3,-14.24c24.97,-19.57 41.04,-49.97 41.04,-84.07c0,-58.91 -47.92,-106.83 -106.83,-106.83c-58.895,0 -106.821,47.92 -106.821,106.83c0,34.1 16.082,64.5 41.039,84.07c3.91,3.07 7.305,9.28 7.305,14.24l0,29.61c0,17.4 -13.442,26.86 -28.375,17.93c-49.637,-29.66 -82.946,-83.94 -82.946,-145.85c0,-93.64 76.176,-169.81 169.798,-169.81c93.64,0 169.81,76.17 169.81,169.81c0,61.91 -33.31,116.19 -82.94,145.85c-14.93,8.93 -28.38,-0.53 -28.38,-17.92l0,-29.62" id="path30"/>
      <path fill="#3a76c4" fill-rule="nonzero" d="m418.419198,3625.555322c0,-17.31 -14.17,-31.49 -31.49,-31.49l0,0c-17.317,0 -31.481,14.18 -31.481,31.49l0,85.48c0,17.32 14.164,31.49 31.481,31.49l0,0c17.32,0 31.49,-14.17 31.49,-31.49l0,-85.48" id="path32"/>
      <path fill="#918f90" fill-rule="nonzero" d="m1527.769198,2855.135322c4.73,-23.27 15.98,-40.36 41.43,-40.36c19.98,0 35.63,10.9 35.63,31.98c0,23.26 -19.63,29.08 -38.17,36.72c-27.64,11.63 -53.8,18.9 -53.8,54.53c0,31.98 25.81,49.81 55.63,49.81c31.62,0 50.16,-18.19 57.77,-47.62l-23.26,-6.91c-4.34,18.54 -14.17,31.62 -34.9,31.62c-15.62,0 -30.88,-8 -30.88,-25.1c0,-17.8 10.9,-22.88 25.45,-29.43l40.33,-17.81c17.09,-9.44 26.19,-24.73 26.19,-44.34c0,-35.99 -25.1,-56.36 -59.99,-56.36c-35.26,0 -57.43,22.56 -63.24,56.36l21.81,6.91" id="path34"/>
      <path fill="#918f90" fill-rule="nonzero" d="m1857.079198,2984.535322l118.15,0l0,-21.82l-93.79,0l0,-56.71l77.43,0l0,-21.79l-77.43,0l0,-67.25l93.79,0l0,-21.82l-118.15,0l0,189.39" id="path36"/>
      <path fill="#918f90" fill-rule="nonzero" d="m2258.359198,2816.965322c21.47,0 41.45,4.72 41.45,30.52c0,18.9 -12.37,34.16 -35.63,34.16l-34.16,0l0,-64.68l28.34,0zm-1.09,86.5c21.11,0 31.65,13.46 31.65,30.53c0,22.55 -16,28.72 -33.1,28.72l-25.8,0l0,-59.25l27.25,0zm-71.24,-108.32l0,21.82l19.63,0l0,145.75l-19.63,0l0,21.82l59.61,0c48,0 68.7,-18.19 68.7,-50.54c0,-16.36 -6.91,-30.89 -21.44,-38.89c20.73,-6.55 32.36,-24.35 32.36,-45.79c0,-34.18 -22.55,-54.17 -62.17,-54.17l-77.06,0" id="path38"/>
      <path fill="#918f90" fill-rule="nonzero" d="m2593.869198,2898.005322c23.62,0 39.26,13.46 39.26,34.9c0,17.09 -10.18,29.81 -32,29.81l-39.26,0l0,-64.71l32,0zm-56.33,86.53l64.33,0c31.62,0 56.71,-14.91 56.71,-51.63c0,-23.27 -15.64,-46.15 -38.55,-53.06l46.53,-76.7l-21.08,-12.73l-48.34,85.8l-35.27,0l0,-81.07l-24.33,0l0,189.39" id="path40"/>
      <path fill="#918f90" fill-rule="nonzero" d="m2934.119198,2956.165322l-26.89,-87.6l53.79,0l-26.9,87.6zm-33.45,-109.41l-17.8,-56.34l-24,8.71l59.61,185.41l31.26,0l59.61,-185.41l-23.97,-8.71l-17.45,56.34l-67.26,0" id="path42"/>
      <path fill="#918f90" fill-rule="nonzero" d="m3223.809198,2984.535322l118.15,0l0,-21.82l-93.79,0l0,-56.71l77.44,0l0,-21.79l-77.44,0l0,-67.25l93.79,0l0,-21.82l-118.15,0l0,189.39" id="path44"/>
      <path fill="none" stroke="#918f90" stroke-width="23.7661" stroke-miterlimit="10" d="m37.541198,2889.475322l1277.048,0" id="path46"/>
      <path fill="none" stroke="#918f90" stroke-width="23.7661" stroke-miterlimit="10" d="m3545.419198,2889.475322l1277.04,0" id="path48"/>
     </g>
    </g>
   </g>
  </g>
 </g>
</svg>